<svg
    viewBox="0 0 256 256"
    width="30"
    height="30"
    fill="#000"
    xmlns="http://www.w3.org/2000/svg"
    preserveAspectRatio="xMidYMid"
>
    <path
        d="M128 0C57 0 0 57 0 128c0 57 37 105 88 121 6 1 9-3 9-6 0-3-.1-13-.2-24-36 8-43-15-43-15-6-15-14-19-14-19-12-8 1-8 1-8 13 1 20 13 20 13 11 20 30 14 37 11 1-8 4-14 8-17-28-3-58-14-58-63 0-14 5-25 13-34-1-3-6-16 1-34 0 0 11-3 35 13 10-3 21-4 32-4 11 0 22 1 32 4 24-17 35-13 35-13 7 18 3 31 1 34 8 9 13 20 13 34 0 49-30 60-58 63 5 4 9 12 9 24 0 17-.1 31-.1 35 0 3 2 7 9 6C219 233 256 185 256 128 256 57 199 0 128 0zm-80 182c-.3.6-1.3.8-2.2.4-.9-.4-1.5-1.3-1.2-1.9.3-.7 1.3-.8 2.2-.4.9.4 1.5 1.3 1.1 1.9zm6 6c-.6.6-1.8.3-2.6-.6-.8-.9-1-2.1-.4-2.7.6-.6 1.8-.3 2.6.6.8.9 1 2.1.4 2.7zm4 7c-.8.5-2.1 0-2.9-1.1-.8-1.1-.8-2.5 0-3.1.8-.5 2.1-.1 2.9 1.1.8 1.2.8 2.5 0 3.1zm7 8c-.7.8-2.2.6-3.3-.5-1.1-1-1.4-2.5-.7-3.3.7-.8 2.2-.6 3.3.5 1.1 1 1.5 2.5.7 3.3zm9 3c-.3 1-1.8 1.5-3.2 1-1.4-.4-2.4-1.6-2.1-2.6.3-1 1.7-1.5 3.2-1 1.4.4 2.4 1.6 2.1 2.6zm11 1c0 1-1.2 1.9-2.7 2-1.5 0-2.8-.8-2.8-1.9 0-1 1.2-1.9 2.7-2 1.5 0 2.8.8 2.8 1.9zm11 0c.2 1-.9 2.1-2.4 2.4-1.5.3-2.9-.4-3.1-1.4-.2-1.1.9-2.1 2.4-2.4 1.5-.3 2.9.4 3.1 1.4z" />
</svg>