<svg xmlns="http://www.w3.org/2000/svg" width="30" height="30" viewBox="0 0 256 256"><path fill="#000" d="M128 23c34 0 38 .1 52 .7 12 .6 19 2.7 24 4.4 6 2.3 10 5.1 15 9.6 4 4.5 7 8.7 10 14.7 2 4.5 4 11.3 4 23.8.6 13.5.7 17.5.7 51.7 0 34-.1 38-.7 52-.6 12-2.7 19-4.4 24-2.3 6-5.1 10-9.6 15-4.5 4.5-8.7 7.3-14.7 9.6-4.5 1.7-11.3 3.8-23.8 4.4-13.5.6-17.5.7-51.7.7-34 0-38-.1-52-.7-12-.6-19-2.7-24-4.4-6-2.3-10-5.1-15-9.6-4.5-4.5-7.3-8.7-9.6-14.7-1.7-4.5-3.8-11.3-4.4-23.8-.6-13.5-.7-17.5-.7-52 0-34 .1-38 .7-52 .6-12 2.7-19 4.4-24 2.3-6 5.1-10 9.6-15 4.5-4.5 8.7-7.3 14.7-9.6 4.5-1.7 11.3-3.8 23.8-4.4 13.5-.6 17.5-.7 51.7-.7M128 0C93 0 89 .1 75 .8c-14 .6-23 2.8-31 6-8 3.3-16 7.6-23 14.8-7 7.1-11 14.2-14 22.6-3 8.1-5 17.4-6 31-.6 13.6-.8 18-.8 52.8 0 35 .1 39 .8 53 .6 14 2.8 23 6 31 3.3 8.4 7.6 15.6 14.8 22.7 7.1 7.1 14.2 11.5 22.6 14.8 8.1 3.2 17.4 5.3 31 6 13.6.6 18 .8 52.8.8s39-.1 53-.8c14-.6 23-2.8 31-6 8.4-3.3 15.6-7.6 22.7-14.8 7.1-7.1 11.5-14.2 14.8-22.6 3.2-8.1 5.3-17.4 6-31 .6-13.6 .8-18 .8-52.8s-.1-39-.8-53c-.6-14-2.8-23-6-31-3.3-8.4-7.6-15.6-14.8-22.7-7.1-7.1-14.2-11.5-22.6-14.8-8.1-3.2-17.4-5.3-31-6-13.6-.6-18-.8-52.8-.8Zm0 62c-36 0-65 29-65 65 0 36 29 66 65 66 36 0 66-30 66-66 0-36-30-65-66-65Zm0 108c-24 0-43-19-43-43s19-43 43-43 43 19 43 43-19 43-43 43Zm84-111c0 8-7 15-15 15-8 0-15-7-15-15 0-8 7-15 15-15 8 0 15 7 15 15Z"/></svg>