<?xml version="1.0" encoding="utf-8"?><svg width="32" height="32" viewBox="0 0 32 32" fill="none" xmlns="http://www.w3.org/2000/svg"><rect x="2" y="2" width="28" height="28" fill="#FFCA28"/><path d="M19 25.288l2.062-1.364c.162.508 1.185 1.713 2.477 1.713 1.292 0 1.892-.706 1.892-1.174 0-1.275-1.32-1.725-1.953-1.941-.103-.035-.188-.064-.246-.089-.03-.013-.075-.03-.133-.052-.705-.269-3.305-1.263-3.305-4.143 0-2.172 3.062-2.537 3.754-2.537.453 0 2.631.056 3.715 2.094l-2 1.396c-.438-.888-1.167-1.182-1.615-1.182-1.108 0-1.338.812-1.338 1.182 0 .037 1.203.502 2.22.894.266.103.519.2.734.302 1.108.523 2.738 1.38 2.738 4.077 0 1.35-1.133 3.537-3.985 3.537-3.83 0-4.846-2.3-5.015-2.712z" fill="#3E3E3E"/><path d="M9 25.559l2.149-1.364c.168.507.822 1.443 1.772 1.443.949 0 1.435-.975 1.435-1.443V15h2.642v9.195c.043 1.268-.66 3.805-3.765 3.805-2.854 0-4.04-1.696-4.233-2.441z" fill="#3E3E3E"/></svg>