<?xml version="1.0" encoding="utf-8"?>

<!-- Uploaded to: SVG Repo, www.svgrepo.com, Generator: SVG Repo Mixer Tools -->
<svg width="32" height="32" viewBox="0 0 100 100" xmlns="http://www.w3.org/2000/svg">

<path fill="#35495E" d="M74 15H6a6 6 0 0 0-6 6v73a6 6 0 0 0 6 6h68a6 6 0 0 0 6-6V21a6 6 0 0 0-6-6z"/>

<rect x="49" y="15" rx="5" fill="#000" opacity=".2" width="32" height="76"/>

<path fill="#fff" d="M76 93a3 3 0 0 1-3 3H7a3 3 0 0 1-3-3V32h72v61z"/>

<circle fill="#D15527" cx="9" cy="24" r="3"/>

<circle fill="#F19B2D" cx="17" cy="24" r="3"/>

<circle fill="#53BB72" cx="25" cy="24" r="3"/>

<path fill="#14A085" d="M8 36h64v56H8z"/>

<path fill="#26B99A" d="M34 36h38v56H34z"/>

<g>

<path fill="#35495E" d="M94 0H58a6 6 0 0 0-6 6v76a6 6 0 0 0 6 6h36a6 6 0 0 0 6-6V6a6 6 0 0 0-6-6zm2 74H56V14h40v60z"/>

<path fill="#fff" d="M56 14h40v60H56z"/>

<path fill="#14A085" d="M59 17h34v54H59z"/>

<path fill="#26B99A" d="M59 44h34v27H59z"/>

<path fill="#2C3D4F" d="M69.5 6h12a1.5 1.5 0 0 1 0 3h-12a1.5 1.5 0 1 1 0-3zM76 78a3 3 0 1 1 0 6 3 3 0 1 1 0-6z"/>

</g>

</svg>